<svg id="Logo" xmlns="http://www.w3.org/2000/svg" viewBox="0 0 512 512"><defs><style>.cls-1{fill:#ec39b5;}</style></defs><title>Artboard 1 copy 14</title><path class="cls-1" d="M192.61,274.84c-5.81-2.69-14-4.06-24.54-4.16H115.4v65.39h51.86c10.65,0,18.9-1.39,24.85-4.3,10.73-5.35,16.11-15.53,16.11-30.65C208.22,288.38,203,279.57,192.61,274.84Z"/><path class="cls-1" d="M193.27,224q10-6.08,9.95-21.58c0-11.42-4.39-19-13.18-22.64-7.56-2.53-17.23-3.84-29-3.84H115.4v54.14h51.93C178,230.05,186.62,228,193.27,224Z"/><path class="cls-1" d="M460.72,0H51.28A51.44,51.44,0,0,0,0,51.28V460.72A51.44,51.44,0,0,0,51.28,512H460.72A51.44,51.44,0,0,0,512,460.72V51.28A51.44,51.44,0,0,0,460.72,0ZM316.15,143.48H415V168H316.15ZM249,343.79a67.87,67.87,0,0,1-17.36,19.27A67,67,0,0,1,204,375.38a170.76,170.76,0,0,1-34.65,3.32H58.8V133.3H177.32c29.87.49,51.05,9.14,63.55,26.14q11.26,15.63,11.23,37.47c0,15-3.77,27-11.34,36.13q-6.33,7.67-18.69,14c12.49,4.57,22,11.77,28.29,21.68s9.56,21.87,9.56,35.95C259.92,319.19,256.33,332.25,249,343.79Zm204.13-47.68h-128q1.05,26.49,18.37,37.08c7,4.44,15.43,6.6,25.33,6.6,10.44,0,18.95-2.64,25.51-8.06a38.53,38.53,0,0,0,9.44-12.06h46.91q-1.85,15.65-17,31.77-23.59,25.63-66.11,25.66-35.1,0-61.92-21.63t-26.8-70.42q0-45.74,24.18-70.08c16.21-16.28,37.12-24.38,62.89-24.38q22.92,0,41.33,8.22a71.32,71.32,0,0,1,30.35,26c7.21,10.47,11.85,22.57,14,36.36C452.83,269.23,453.37,280.88,453.15,296.11Z"/><path class="cls-1" d="M393.18,238q-10.94-9.5-27.24-9.51c-11.82,0-20.94,3.4-27.42,10.08s-10.59,15.73-12.25,27.21h79.19Q404.17,247.47,393.18,238Z"/></svg>