<svg id="Logo" xmlns="http://www.w3.org/2000/svg" viewBox="0 0 512 512"><defs><style>.cls-1{fill:#3b4144;}</style></defs><title>Artboard 1 copy 8</title><path class="cls-1" d="M460.72,0H51.28A51.44,51.44,0,0,0,0,51.28V460.72A51.44,51.44,0,0,0,51.28,512H273.47V313.73H206.75V236.46h66.72v-57c0-66.13,40.39-102.14,99.39-102.14,28.25,0,52.54,2.1,59.62,3v69.12H391.56c-32.08,0-38.29,15.25-38.29,37.62v49.34h76.52l-10,77.27H353.27V512H460.72A51.44,51.44,0,0,0,512,460.72V51.28A51.44,51.44,0,0,0,460.72,0Z"/></svg>