<svg id="Logo" xmlns="http://www.w3.org/2000/svg" viewBox="0 0 512 512"><defs><style>.cls-1{fill:#3b4144;}</style></defs><title>Artboard 1 copy 9</title><path class="cls-1" d="M360.15,177.2a44.21,44.21,0,0,0-25.35-25.35c-4.71-1.83-11.78-4-24.81-4.61-14.09-.64-18.32-.77-54-.77s-39.9.13-54,.77c-13,.6-20.1,2.78-24.81,4.61a44.21,44.21,0,0,0-25.35,25.35c-1.83,4.71-4,11.78-4.61,24.81-.64,14.09-.77,18.32-.77,54s.13,39.9.77,54c.6,13,2.78,20.1,4.61,24.81a44.21,44.21,0,0,0,25.35,25.35c4.71,1.83,11.78,4,24.81,4.61,14.09.64,18.31.77,54,.77s39.9-.13,54-.77c13-.6,20.1-2.78,24.81-4.61a44.21,44.21,0,0,0,25.35-25.35c1.83-4.71,4-11.78,4.61-24.81.64-14.09.77-18.32.77-54s-.13-39.9-.77-54C364.16,189,362,181.91,360.15,177.2ZM256,324.61A68.61,68.61,0,1,1,324.61,256,68.61,68.61,0,0,1,256,324.61Zm71.32-123.9a16,16,0,1,1,16-16A16,16,0,0,1,327.32,200.71Z"/><circle class="cls-1" cx="256" cy="256" r="44.54"/><path class="cls-1" d="M460.72,0H51.28A51.44,51.44,0,0,0,0,51.28V460.72A51.44,51.44,0,0,0,51.28,512H460.72A51.44,51.44,0,0,0,512,460.72V51.28A51.44,51.44,0,0,0,460.72,0ZM388.8,311.09c-.65,14.22-2.9,23.93-6.21,32.43a68.33,68.33,0,0,1-39.07,39.07c-8.5,3.31-18.21,5.56-32.43,6.21s-18.8.81-55.09.81-40.84-.16-55.09-.81-23.93-2.9-32.43-6.21a68.33,68.33,0,0,1-39.07-39.07c-3.31-8.5-5.56-18.21-6.21-32.43s-.81-18.8-.81-55.09.16-40.84.81-55.09,2.9-23.93,6.21-32.43a68.33,68.33,0,0,1,39.07-39.07c8.5-3.31,18.21-5.56,32.43-6.21s18.8-.81,55.09-.81,40.84.16,55.09.81,23.93,2.9,32.43,6.21a68.33,68.33,0,0,1,39.07,39.07c3.31,8.5,5.56,18.21,6.21,32.43s.81,18.8.81,55.09S389.45,296.84,388.8,311.09Z"/></svg>