<svg id="Logo" xmlns="http://www.w3.org/2000/svg" viewBox="0 0 512 512"><defs><style>.cls-1{fill:#0073b1;}</style></defs><title>Artboard 1 copy 15</title><path class="cls-1" d="M460.72,0H51.28A51.44,51.44,0,0,0,0,51.28V460.72A51.44,51.44,0,0,0,51.28,512H460.72A51.44,51.44,0,0,0,512,460.72V51.28A51.44,51.44,0,0,0,460.72,0ZM158.33,427.33h-77V196h77Zm-7-274.16q-12,11.51-31.67,11.5h-.34q-19,0-30.83-11.5t-11.84-28.5q0-17.33,12.17-28.67t31.5-11.33q19.33,0,31,11.33t12,28.67A37.92,37.92,0,0,1,151.34,153.17Zm284,274.16h-77V303.67q0-52.34-38.66-52.33-14.67,0-24.67,8.16a51.43,51.43,0,0,0-15,19.84q-2.34,6-2.33,18.66V427.33h-77q1-209.32,0-231.33h77v32.66q24.29-38,69-38,40,0,64.33,26.33t24.34,77.67Z"/></svg>