<svg id="Layer_1" data-name="Layer 1" xmlns="http://www.w3.org/2000/svg" viewBox="0 0 93.8 70.5"><title>Artboard 2</title><g id="a"><path d="M93.8,13.85Q93.05,0,78.55,0H15.25Q.25,0,0,14.85v40.4Q0,62.15,3.4,66,7,70.5,15.25,70.5h63.3q8.15,0,12-4.55l0,0q3.26-3.75,3.25-10.65V13.85M78.55,6.15q7.7,0,9,6.6L59.8,33.9l-.1.05-12.9,9.8L35,35.05l0,0-.25-.1L6.25,13.6q.8-7.45,9-7.45h63.3m5,57.35a13,13,0,0,1-5,.85H15.25a12.2,12.2,0,0,1-4.7-.8l22.85-22L45,50.1a3,3,0,0,0,1.85.6,3.36,3.36,0,0,0,1.9-.6l12.6-9.65,22.25,23m4.1-8.25a15.19,15.19,0,0,1-.35,3.4L66.2,36.7,87.65,20.35v34.9M28.4,37.75,6.55,58.85a14.74,14.74,0,0,1-.4-3.6v-34Z"/></g></svg>