<svg xmlns="http://www.w3.org/2000/svg" viewBox="0 0 95.8 72.5"><defs><style>.cls-1{fill:#fff;stroke:#fff;stroke-miterlimit:10;stroke-width:2px;}</style></defs><title>Asset 1</title><g id="Layer_2" data-name="Layer 2"><g id="Layer_1-2" data-name="Layer 1"><g id="a"><path class="cls-1" d="M94.8,14.85Q94.05,1,79.55,1H16.25Q1.25,1,1,15.85v40.4Q1,63.15,4.4,67,8,71.5,16.25,71.5h63.3q8.15,0,12-4.55h0Q94.81,63.2,94.8,56.3V14.85M79.55,7.15q7.7,0,9,6.6L60.8,34.9l-.1.05-12.9,9.8L36,36.05h0l-.25-.1L7.25,14.6q.8-7.45,9-7.45h63.3m5,57.35a12.91,12.91,0,0,1-5,.85H16.25a12.18,12.18,0,0,1-4.7-.8l22.85-22L46,51.1a3,3,0,0,0,1.85.6,3.32,3.32,0,0,0,1.9-.6l12.6-9.65,22.25,23m4.1-8.25a15.58,15.58,0,0,1-.35,3.4L67.2,37.7,88.65,21.35v34.9M29.4,38.75,7.55,59.85a14.56,14.56,0,0,1-.4-3.6v-34Z"/></g></g></g></svg>