<svg id="Layer_1" data-name="Layer 1" xmlns="http://www.w3.org/2000/svg" viewBox="0 0 511.62 223.27"><defs><style>.cls-1{fill:#fff;}</style></defs><title>grieving</title><path class="cls-1" d="M350.53,155.57c6.45-3,8.56-8.33,10.83-13.41,5.39-12.06,6.9-25,7.69-38,.18-3-.47-6.18.37-8.94.76-2.51,2.57-5.49,4.76-6.57,3-1.46,5.77.47,7,3.75,2.81,7.45,8.88,10.31,15.9,9,4.51-.85,8.62-4.38,12.61-7.14,1.83-1.26,2.61-4.11,4.48-5.23s4.7-1.59,6.29-.75,2.94,3.62,3,5.6c.08,2.14-1.54,4.3-2.24,6.51-4.55,14.38-6.76,29-4.62,44.48,5.53-.06,7.36-4,9.15-7.16,4.41-7.82,8.27-15.95,12.46-23.9,2.32-4.42,4.46-9,7.37-13,6-8.25,14-7.66,19.05,1.14,1.14,2,1.92,4.19,3.47,7.63,3.57-7.25,6.47-13.46,9.66-19.52,2.28-4.33,4-9.71,10.25-9.62,4,.06,6.83,5.84,6.66,14.13-.19,9.65-1.07,19.29-1.38,28.94-.23,7.16-1,14.47,3,23.09,3.87-4.19,7.46-7.1,9.79-10.8,5.32-8.44,9.9-17.35,15-25.91,3.93-6.55,7.79-13.25,12.51-19.21,9-11.4,16.47-11.94,28.3-2.72,1.5-.94,3-2.27,4.76-2.9,5.71-2,10.66,1.06,10,6.94-4.3,37,1.13,74.69-7,111.5-.48,2.16.57,5.09,1.8,7.12,4.51,7.45,3.84,11.38-4.06,13.24-4.59,1.08-5.6,4-7.2,7.12-5.48,10.83-12.33,20.58-22.29,27.8-11.22,8.13-23.32,9.35-35.89,3.72-18.15-8.13-24.25-28.12-14-45.22,11-18.41,34.62-28,55.39-22.34,3.51,1,7,2.16,11.19,3.49,5.86-23.11,4.65-46.28,5.42-71.29-4.37,3.29-7.08,5.53-10,7.49-11.27,7.59-20,3.41-21.39-10.21a5.63,5.63,0,0,0-2-4.05c-1.81,3-3.42,6.14-5.46,9-5,7-9.91,14.17-15.53,20.69-3.3,3.83-8.13,6.07-13.54,3.93-5-2-6.68-6.48-7-11.26-.49-8.29-.58-16.6-.57-24.91,0-5.54.45-11.08-1-17.14a38.88,38.88,0,0,0-3.32,5.35c-4.39,10.43-8.65,20.92-12.92,31.4-.75,1.84-1,4-2.2,5.52s-3.51,3.31-4.5,2.91a7.73,7.73,0,0,1-4.2-4.67c-.64-2.82.09-5.93.06-8.92-.06-6.86,1.67-13.9-2-21.71a70.75,70.75,0,0,0-4.74,6.77c-3.9,7.35-7.21,15.05-11.55,22.13-3.26,5.32-7.08,10.68-11.82,14.63-8.64,7.2-19.08,3.33-21.18-7.68-1.17-6.12-.91-12.55-.92-18.85,0-4.57.6-9.15.9-13.29l-24.28-2.35c-.58,2.79-1.43,6.27-2,9.79-1.9,11.6-5,22.81-11.39,32.79-4.39,6.88-9.61,13.74-19,12s-12-9.89-13.48-17.91c-1.2-6.51-1.3-13.22-1.89-19.84s-1.19-13.14-3.59-20.08a69,69,0,0,0-3.33,6.53c-3.24,8.38-6.13,16.9-9.55,25.21-3.35,8.13-8.28,15.17-15.79,20.15-7.86,5.22-15.89,6.54-24.39,1.61a35.13,35.13,0,0,0-3.36-1.54c-26.84,20.75-39,18.82-49.41-8.41-1.78,1.6-3.44,2.86-4.81,4.37-2.9,3.19-6.3,4.09-9.71,1.44-3.08-2.4-3-6-.89-9,6.93-9.67,10.6-20.66,13.71-31.95,1-3.79,3.2-6.83,7.67-6.47,5,.4,6.66,4,6.78,8.37.2,7.33-.13,14.67.29,22a59.82,59.82,0,0,0,2.38,14.68c2.25,7.06,6.16,8.48,13.24,5.69a23.16,23.16,0,0,0,12.77-11.14c-3.74-8.53-6.45-17.53-3.91-26.93a49,49,0,0,1,6.1-13.44,9.33,9.33,0,0,1,10.52-4.08c4.28,1.11,6.46,4.24,7.49,8.49,2,8.12.18,15.89-2,23.6-1.16,4.14-2.88,8.13-4.32,12.11,6,6.57,9.52,7.2,16.23,2.94,6.52-4.14,10.16-10.51,12.8-17.42,3.33-8.7,6.14-17.6,9.33-26.35a61.54,61.54,0,0,1,4.82-10.94c4.28-7,11.92-7.18,15.84.09a45.44,45.44,0,0,1,4.51,15.15c1.19,8.56,1.49,17.25,2.14,25.89C345.15,144.95,346,150.48,350.53,155.57ZM550.2,214.38c-18.19-12.14-40.86-7.06-50.31,10.17-5.5,10-1.81,20.27,8.81,24.36,7.08,2.73,13.76,1.89,19.82-2.69C539.23,238.1,545.6,227.07,550.2,214.38Zm-8.52-89.06c10.18-8.17,15.19-17.17,18.83-27.85-4.71-.4-8.45-1.34-10.84,2.65C545.39,107.23,542.18,114.68,541.67,125.32Z" transform="translate(-65.11 -42.7)"/><path class="cls-1" d="M132.43,139c.33,2.23.73,5.15,1.2,8.07,2.36,14.58-1.86,27.12-12.45,37.2-15.06,14.34-35.94,11.57-46.95-6.08-8.29-13.28-10.09-28.1-8.7-43.3A134.21,134.21,0,0,1,86,75c5.19-8.26,11.69-15.4,20.06-20.59a29.29,29.29,0,0,1,41.25,11c1.78,3.26,2.59,6.45-.93,8.78-2.89,1.91-5.74,1-7.88-1.76-.81-1.05-1.53-2.19-2.41-3.18-8.6-9.71-16.89-10.49-26.85-2a53.67,53.67,0,0,0-10.08,11C85.09,99.55,76.83,122.9,78.78,148.77a59.22,59.22,0,0,0,6.67,22.65c6.09,11.49,17.87,12.66,27.71,4,9-8,11.56-20.15,6.58-33a69,69,0,0,1-8.47-1.84c-6.18-2.12-9.2-8.14-7-13.34,2.48-5.85,9.08-7.83,15.12-4.29a84.43,84.43,0,0,1,7.33,5.4c7.27-2.71,12.14-8.27,17.15-13.52a38.46,38.46,0,0,1,21.57-11.68c10.23-1.81,15.59,2.42,15.2,12.81-.32,8.61-2.37,17.16-2.75,25.78A133.23,133.23,0,0,0,179,164.48c.42,3.27,2.92,6.28,4.95,10.35,3.83-2.24,6.67-3.77,9.37-5.52s5.44-3.16,7.93-.07c3,3.69.27,6.11-2.42,8.27a49.59,49.59,0,0,1-5.7,4c-8.41,5-15.77,3.63-20-5.32a57.06,57.06,0,0,1-5.61-21.89c-.35-10.56,1.5-21.19,2.39-31.79.24-2.88.44-5.76.7-9.12-7.64-.15-13,2.69-17.77,7C146.23,126.44,139.62,132.47,132.43,139Z" transform="translate(-65.11 -42.7)"/><path class="cls-1" d="M441.79,50.41A7.58,7.58,0,0,1,434,57.73,7.4,7.4,0,0,1,427,49.62a7.68,7.68,0,0,1,7.21-6.92A7.88,7.88,0,0,1,441.79,50.41Z" transform="translate(-65.11 -42.7)"/><path class="cls-1" d="M238.79,64.41A7.58,7.58,0,0,1,231,71.73,7.4,7.4,0,0,1,224,63.62a7.68,7.68,0,0,1,7.21-6.92A7.88,7.88,0,0,1,238.79,64.41Z" transform="translate(-65.11 -42.7)"/><path class="cls-1" d="M269.87,135.54l4.89-16.33c3.7,6.84.75,12-2.21,17.23Z" transform="translate(-65.11 -42.7)"/></svg>