<svg xmlns="http://www.w3.org/2000/svg" viewBox="0 0 502.17 241.14"><defs><style>.cls-1{fill:#231f20;}</style></defs><title>Asset 1</title><g id="Layer_2" data-name="Layer 2"><g id="Layer_1-2" data-name="Layer 1"><path class="cls-1" d="M175.38,1.54a54.53,54.53,0,0,0-29.29,16.67c-10.56,11.41-12.73,18.48-13,43.41l-.13,20.54-10.52,5.6c-27.29,14.42-33.21,30.53-19.46,52.43,2.66,4.27,4.91,8,4.91,8.25,0,.85-19.32,8-34.08,12.67-17.6,5.55-32,13.39-52.18,28.28C11.76,196.56,2.79,203,1.66,203.72S-.2,206.4.06,209c.67,6,4.35,5.84,19.41-.58,31.54-13.68,46.43-16.13,88.64-14.73,31.44,1.05,50.27,3.3,52.24,6,1.68,2.42-.11,17-2.7,23.22a34,34,0,0,1-14,15.49c-7.39,3.78-2.72,3.67,5.1-.11,10.52-5,16.24-13.78,20.17-30.75.88-4.1,2.32-7.49,3-7.49s11,.92,22.94,2.13c29.87,2.88,40.36,2,55.71-5.31a185.6,185.6,0,0,0,17.34-9.1c3.84-2.67,6.11-3.36,8.52-2.5,2.83.87,3,.73,1.28-1.41s-1-3.26,6-10.44c17.11-17.32,32.84-39.31,36.74-51.61,2.31-7.21,1.26-19.83-2-23.53-3-3.42-9.18-3.74-14.73-.8-2.27,1.12-8,6.18-12.82,11.39-9.27,10-21.32,31.88-24.66,44.61-1.6,6.79-1.28,22.38.53,26.92,1.26,2.7-7.57,9.73-20.51,16.16-7.25,3.64-9,3.91-23.4,3.67-16.86-.25-49.83-5.56-52.65-8.42-.84-1-3-12.2-4.66-25-2.7-20.28-2.82-23.39-1.12-24.52C188.87,128.15,248.35,88,262,76.62,274.13,66.5,284.13,54,284.16,48.86c0-4-4.62-9-8.3-9-1.56,0-18.17,5-36.76,11.1-41.6,13.61-85.59,25.37-87.56,23.38-.84-.86-1.36-9.08-1.3-18.71.1-16.15.4-17.71,4.13-24.77,9.32-17.37,34.88-26.55,57.79-20.59a97.42,97.42,0,0,1,17.52,6.77c4.52,2.3,8.47,4,8.9,3.6,1.14-1.13-11.13-9.56-20-13.73C204,0,190.13-1.62,175.38,1.54Zm71.83,65.63c-7,6.47-85.52,57.39-86.78,56.11-1.69-1.85-7.17-30.79-6.57-34.89.44-2.83,1.72-3.53,10.37-5,18.86-3.28,42.56-8.65,61.72-13.91,10.5-2.91,20.44-5.39,22-5.52C250.49,63.8,250.34,64.08,247.21,67.18ZM136,95.22c.41,2.27,2.62,11.21,5,20,3,11.92,3.58,16.6,2.43,18-1.71,2.11-28.56,13.27-31.82,13.25-2.41,0-8.15-10.54-10.5-19.19a22.13,22.13,0,0,1,5.23-20.79c3.57-3.66,24.47-15.14,27.58-15.12C134.56,91.38,135.4,93.09,136,95.22Zm168.86,23.9c-4.48,13.71-26,51.83-31.82,56.6-2.14,1.69-2.42,1.26-2.38-4.55.05-8.5,2.94-16,12.54-32.79,8.74-15.1,22.3-31,23-26.91C306.42,112.75,305.83,116.15,304.82,119.12ZM150.29,156.94c.83,3.41,3,11.64,5,18.45s3.32,12.63,3.32,13.06c0,1.42-10.21.78-23.23-1.43-24.2-4.12-47.85-5.55-64.58-4-8.51.8-16.59,1.73-17.72,2.15s-2.13.27-2.12-.58c0-1.84,11.37-6.16,34.51-12.81,16.46-4.71,44.72-14.59,55.66-19.47C146.94,149.83,148.77,150.7,150.29,156.94Z"/><path class="cls-1" d="M237.71,111.74c-13.21,5.86-26.24,26-27.62,42.61-.62,8.21-.35,9.91,2.6,14,6,8.26,15.37,10.87,23.9,6.53,5.83-2.94,5.41-3.65-1.4-2.7-7.37,1.09-12.18-.22-14.85-4.35s-1.8-6.67,3.32-9.61c6.54-3.78,18.81-16.6,24.82-25.62,6.58-10,7.48-17.66,2.4-21.24C246.8,108.54,244.67,108.53,237.71,111.74Zm5.72,12.93c-.44,2.41-2.6,7.21-4.6,10.74-4.15,7.06-17.28,21.71-19.27,21.69-2.69,0-1.08-7.66,3.22-15.7s16.71-21,20-21C243.89,120.43,244,121.84,243.44,124.67Z"/><path class="cls-1" d="M361.57,127.56c-14.26,14.08-17,16.18-21.07,16.16a26.89,26.89,0,0,0-9.22,1.92c-6.53,2.65-19.22,14.33-22.52,20.82-2.87,5.65-4.05,13.57-2.23,16.42,1.26,2.13,7.21,2.17,11.19.21,2.84-1.4,18.08-13.63,21.65-17.29.86-.84,3.85-3.66,6.7-6.19l5.13-4.78L350.41,167c-.78,10.48-.51,12.61,1.6,15,3.66,4,5.5,3.58,2.7-.69-5.05-7.68.28-21,18.15-46.07,6.29-8.74,11.45-17.35,11.46-19.05a5.1,5.1,0,0,0-5.35-4.85C378.39,111.38,370.55,118.69,361.57,127.56Zm-20,19.14c0,2.55-24,26.05-25.09,24.77s1.46-6.08,8.17-14.4C332.11,147.91,341.64,142.17,341.61,146.7Z"/><path class="cls-1" d="M397.3,144.79c-10.09,4.18-21.66,19.84-21.87,29.33,0,5,5.6,10.94,10.55,11,4.11,0,10.64-2.91,17.34-8l4.56-3.37,2.38,3.7a18.58,18.58,0,0,0,15.11,7.89c6.94,0,26-4.93,45.41-12,9.51-3.34,20.44-6.53,24.13-6.93,8.22-.94,9.65-2.63,3.28-3.8s-19,.73-40.56,6.54c-35.34,9.41-42.69,7.94-33.25-7.16,4.72-7.48,4.76-13.14.23-14.31-5.66-1.45-8.64.37-22.47,12.89C388.62,172.93,384.93,174,388.11,165c2.88-7.77,8.74-15.1,14.56-17.61,3.69-1.53,5-2.66,3.71-3.52C404.12,142.29,402.56,142.42,397.3,144.79Z"/></g></g></svg>