<svg id="Layer_1" data-name="Layer 1" xmlns="http://www.w3.org/2000/svg" viewBox="0 0 224.77 127.93"><defs><style>.cls-1{fill:#fff;}</style></defs><title>text</title><path class="cls-1" d="M445,217.42c-7.58-10.14-18.58-20.7-32.38-16.52-14.34,4.34-20.44,19.13-23.06,32.59-2.9,14.85-6.49,32.05.91,46.15,5.31,10.12,18.12,18.75,29.42,12.35,5-2.83,7.71-8.59,5.16-14-2.44-5.18-8.16-8-13.41-5.18a3.08,3.08,0,0,0-1.08,4.1c2.42,5.33,9.27,6,14,3.52,3.24-1.69,5.35-4.7,7.53-7.52s10.46-10.11,11-2c.33,5.21-.92,12.94,6.82,13.17s9.66-8.15,9.74-14.21h-6c.4,8.12,8.82,12.94,16.44,11.21,9.92-2.25,13.3-13.57,13.51-22.46a3,3,0,0,0-3-3c-8.08,0-13.5,8.4-11.85,16,2,9.22,12.09,13.06,20.5,13.4a3,3,0,0,0,3-3c-.27-3.35-.95-7.87,1.38-10.63,1.35-1.61,3.81-2.53,5.49-.62.72.81,1,2.86,1.31,3.89,1.12,3.65,2.88,7.29,7,8.14,10.51,2.17,13.11-10.33,10.26-17.69l-2.1,3.69a22.37,22.37,0,0,0,13.62-9.06l-5.48-.72c1.8,5-1,10.25.79,15.35,1.17,3.28,3.85,6.1,7.54,6.1,2.9,0,5.16-1.82,6.74-4.1,1.73-2.49,2.79-7.82,6.1-8.53l-3.69-2.1,1.92,11.07c.44,2.54,4.35,2.9,5.48.72l7.13-13.69-5.59-1.51c-.69,8.55,0,19.66,10.07,22.12a10.4,10.4,0,0,0,9.14-1.84,9.37,9.37,0,0,0,2.87-5.12,22.72,22.72,0,0,0,.38-3.09c.09-.91,1.26-5.84,1.62-5.28l4.1-4.1c-6.91-3.71-16.8,4.07-12.23,11.56,3.89,6.38,14.77,3.93,16-3.26h-5.79c3,10.37,11.68,16.86,16.56,26.11,7,13.31-6.93,23.25-19.46,22.37-5.73-.41-13.1-3.12-14.73-9.3s3.23-11,7.91-14c5.41-3.52,11.56-5.38,17.63-7.37l24.57-8.07c3.65-1.2,2.09-7-1.6-5.79l-25.51,8.38c-5.83,1.91-11.69,3.8-17,7-8.58,5.13-16.11,14.92-10.32,25,10.91,19,49.83,9.88,46.34-13.59-1.91-12.87-15.15-20.12-18.63-32.33-.76-2.66-5.28-3.05-5.79,0a3,3,0,0,1-3.75,2.46c-3.1-1.1.12-5.41,2.77-4s5.83-1.48,4.1-4.1c-3.66-5.57-11-1.87-12.35,3.63-.52,2.15.11,4.94-.77,6.92-1.18,2.66-4.11,2.47-6.29,1.34-5.26-2.72-4.27-10.74-3.87-15.65.24-3-4.26-4.08-5.59-1.51l-7.13,13.69,5.48.72L547,264.16c-.29-1.66-2.23-2.4-3.69-2.1-5.23,1.11-6.47,6.07-8.95,10.07-2.59,4.2-4.62.86-4.63-3,0-4.17,1.25-7.65-.22-11.75a3,3,0,0,0-5.48-.72,16.08,16.08,0,0,1-10,6.3,3,3,0,0,0-2.1,3.69c1,2.63,2.58,7.74-.7,9.59-3.72,2.1-4.67-2.47-5.49-5-1.14-3.54-3-6.83-7-7.65-10.84-2.23-13.13,10.77-12.5,18.4l3-3c-4.95-.2-11-1.7-13.67-6.3-2.43-4.12-.46-11.14,5-11.13l-3-3c-.13,5.55-1.39,12.78-6.74,15.8-3.86,2.18-11,.65-11.21-4.54-.19-3.84-6-3.89-6,0a18.41,18.41,0,0,1-.4,4.93q-.2,3.21-2.7,2-2.19.44-1.65-1.47c-.62-2,.43-4.82,0-7a8.42,8.42,0,0,0-7.91-7c-4.7-.33-8.73,2.15-11.7,5.6-2.13,2.47-10.23,14.27-13.55,7l-1.08,4.1c3.1-1.68,5.77,2.64,5.21,5.22-.63,2.87-3.77,4.31-6.41,4.78-5.77,1-11.32-2.54-14.83-6.83-9-11-6.64-26.21-4.5-39.13,2-11.76,4.18-25.74,15-32.85,12.27-8.09,23.43,1.52,30.73,11.29,2.29,3.06,7.5.07,5.18-3Z" transform="translate(-386.05 -199.97)"/></svg>